<svg xmlns="http://www.w3.org/2000/svg" version="1.1" xmlns:xlink="http://www.w3.org/1999/xlink" xmlns:svgjs="http://svgjs.dev/svgjs" width="1440" height="560" preserveAspectRatio="none" viewBox="0 0 1440 560"><g mask="url(&quot;#SvgjsMask1022&quot;)" fill="none"><rect width="1440" height="560" x="0" y="0" fill="#0e2a47"></rect><path d="M13.89 -39.51L78.84 -2.01L78.84 72.99L13.89 110.49L-51.06 72.99L-51.06 -2.01zM78.84 72.99L143.8 110.49L143.8 185.49L78.84 222.99L13.89 185.49L13.89 110.49zM338.66 297.99L403.61 335.49L403.61 410.49L338.66 447.99L273.7 410.49L273.7 335.49zM598.47 522.99L663.43 560.49L663.43 635.49L598.47 672.99L533.52 635.49L533.52 560.49zM728.38 522.99L793.34 560.49L793.34 635.49L728.38 672.99L663.43 635.49L663.43 560.49zM858.29 297.99L923.24 335.49L923.24 410.49L858.29 447.99L793.33 410.49L793.33 335.49zM923.24 -39.51L988.2 -2.01L988.2 72.99L923.24 110.49L858.29 72.99L858.29 -2.01zM923.24 410.49L988.2 447.99L988.2 522.99L923.24 560.49L858.29 522.99L858.29 447.99zM1053.15 -39.51L1118.1 -2.01L1118.1 72.99L1053.15 110.49L988.2 72.99L988.2 -2.01zM1053.15 410.49L1118.1 447.99L1118.1 522.99L1053.15 560.49L988.2 522.99L988.2 447.99zM1183.06 185.49L1248.01 222.99L1248.01 297.99L1183.06 335.49L1118.1 297.99L1118.1 222.99zM1183.06 410.49L1248.01 447.99L1248.01 522.99L1183.06 560.49L1118.1 522.99L1118.1 447.99zM1312.97 -39.51L1377.92 -2.01L1377.92 72.99L1312.97 110.49L1248.01 72.99L1248.01 -2.01z" stroke="#03305d" stroke-width="2"></path><path d="M6.39 -39.51 a7.5 7.5 0 1 0 15 0 a7.5 7.5 0 1 0 -15 0zM71.34 -2.01 a7.5 7.5 0 1 0 15 0 a7.5 7.5 0 1 0 -15 0zM71.34 72.99 a7.5 7.5 0 1 0 15 0 a7.5 7.5 0 1 0 -15 0zM6.39 110.49 a7.5 7.5 0 1 0 15 0 a7.5 7.5 0 1 0 -15 0zM-58.56 72.99 a7.5 7.5 0 1 0 15 0 a7.5 7.5 0 1 0 -15 0zM-58.56 -2.01 a7.5 7.5 0 1 0 15 0 a7.5 7.5 0 1 0 -15 0zM136.3 110.49 a7.5 7.5 0 1 0 15 0 a7.5 7.5 0 1 0 -15 0zM136.3 185.49 a7.5 7.5 0 1 0 15 0 a7.5 7.5 0 1 0 -15 0zM71.34 222.99 a7.5 7.5 0 1 0 15 0 a7.5 7.5 0 1 0 -15 0zM6.39 185.49 a7.5 7.5 0 1 0 15 0 a7.5 7.5 0 1 0 -15 0zM331.16 297.99 a7.5 7.5 0 1 0 15 0 a7.5 7.5 0 1 0 -15 0zM396.11 335.49 a7.5 7.5 0 1 0 15 0 a7.5 7.5 0 1 0 -15 0zM396.11 410.49 a7.5 7.5 0 1 0 15 0 a7.5 7.5 0 1 0 -15 0zM331.16 447.99 a7.5 7.5 0 1 0 15 0 a7.5 7.5 0 1 0 -15 0zM266.2 410.49 a7.5 7.5 0 1 0 15 0 a7.5 7.5 0 1 0 -15 0zM266.2 335.49 a7.5 7.5 0 1 0 15 0 a7.5 7.5 0 1 0 -15 0zM590.97 522.99 a7.5 7.5 0 1 0 15 0 a7.5 7.5 0 1 0 -15 0zM655.93 560.49 a7.5 7.5 0 1 0 15 0 a7.5 7.5 0 1 0 -15 0zM655.93 635.49 a7.5 7.5 0 1 0 15 0 a7.5 7.5 0 1 0 -15 0zM590.97 672.99 a7.5 7.5 0 1 0 15 0 a7.5 7.5 0 1 0 -15 0zM526.02 635.49 a7.5 7.5 0 1 0 15 0 a7.5 7.5 0 1 0 -15 0zM526.02 560.49 a7.5 7.5 0 1 0 15 0 a7.5 7.5 0 1 0 -15 0zM720.88 522.99 a7.5 7.5 0 1 0 15 0 a7.5 7.5 0 1 0 -15 0zM785.84 560.49 a7.5 7.5 0 1 0 15 0 a7.5 7.5 0 1 0 -15 0zM785.84 635.49 a7.5 7.5 0 1 0 15 0 a7.5 7.5 0 1 0 -15 0zM720.88 672.99 a7.5 7.5 0 1 0 15 0 a7.5 7.5 0 1 0 -15 0zM850.79 297.99 a7.5 7.5 0 1 0 15 0 a7.5 7.5 0 1 0 -15 0zM915.74 335.49 a7.5 7.5 0 1 0 15 0 a7.5 7.5 0 1 0 -15 0zM915.74 410.49 a7.5 7.5 0 1 0 15 0 a7.5 7.5 0 1 0 -15 0zM850.79 447.99 a7.5 7.5 0 1 0 15 0 a7.5 7.5 0 1 0 -15 0zM785.83 410.49 a7.5 7.5 0 1 0 15 0 a7.5 7.5 0 1 0 -15 0zM785.83 335.49 a7.5 7.5 0 1 0 15 0 a7.5 7.5 0 1 0 -15 0zM915.74 -39.51 a7.5 7.5 0 1 0 15 0 a7.5 7.5 0 1 0 -15 0zM980.7 -2.01 a7.5 7.5 0 1 0 15 0 a7.5 7.5 0 1 0 -15 0zM980.7 72.99 a7.5 7.5 0 1 0 15 0 a7.5 7.5 0 1 0 -15 0zM915.74 110.49 a7.5 7.5 0 1 0 15 0 a7.5 7.5 0 1 0 -15 0zM850.79 72.99 a7.5 7.5 0 1 0 15 0 a7.5 7.5 0 1 0 -15 0zM850.79 -2.01 a7.5 7.5 0 1 0 15 0 a7.5 7.5 0 1 0 -15 0zM980.7 447.99 a7.5 7.5 0 1 0 15 0 a7.5 7.5 0 1 0 -15 0zM980.7 522.99 a7.5 7.5 0 1 0 15 0 a7.5 7.5 0 1 0 -15 0zM915.74 560.49 a7.5 7.5 0 1 0 15 0 a7.5 7.5 0 1 0 -15 0zM850.79 522.99 a7.5 7.5 0 1 0 15 0 a7.5 7.5 0 1 0 -15 0zM1045.65 -39.51 a7.5 7.5 0 1 0 15 0 a7.5 7.5 0 1 0 -15 0zM1110.6 -2.01 a7.5 7.5 0 1 0 15 0 a7.5 7.5 0 1 0 -15 0zM1110.6 72.99 a7.5 7.5 0 1 0 15 0 a7.5 7.5 0 1 0 -15 0zM1045.65 110.49 a7.5 7.5 0 1 0 15 0 a7.5 7.5 0 1 0 -15 0zM1045.65 410.49 a7.5 7.5 0 1 0 15 0 a7.5 7.5 0 1 0 -15 0zM1110.6 447.99 a7.5 7.5 0 1 0 15 0 a7.5 7.5 0 1 0 -15 0zM1110.6 522.99 a7.5 7.5 0 1 0 15 0 a7.5 7.5 0 1 0 -15 0zM1045.65 560.49 a7.5 7.5 0 1 0 15 0 a7.5 7.5 0 1 0 -15 0zM1175.56 185.49 a7.5 7.5 0 1 0 15 0 a7.5 7.5 0 1 0 -15 0zM1240.51 222.99 a7.5 7.5 0 1 0 15 0 a7.5 7.5 0 1 0 -15 0zM1240.51 297.99 a7.5 7.5 0 1 0 15 0 a7.5 7.5 0 1 0 -15 0zM1175.56 335.49 a7.5 7.5 0 1 0 15 0 a7.5 7.5 0 1 0 -15 0zM1110.6 297.99 a7.5 7.5 0 1 0 15 0 a7.5 7.5 0 1 0 -15 0zM1110.6 222.99 a7.5 7.5 0 1 0 15 0 a7.5 7.5 0 1 0 -15 0zM1175.56 410.49 a7.5 7.5 0 1 0 15 0 a7.5 7.5 0 1 0 -15 0zM1240.51 447.99 a7.5 7.5 0 1 0 15 0 a7.5 7.5 0 1 0 -15 0zM1240.51 522.99 a7.5 7.5 0 1 0 15 0 a7.5 7.5 0 1 0 -15 0zM1175.56 560.49 a7.5 7.5 0 1 0 15 0 a7.5 7.5 0 1 0 -15 0zM1305.47 -39.51 a7.5 7.5 0 1 0 15 0 a7.5 7.5 0 1 0 -15 0zM1370.42 -2.01 a7.5 7.5 0 1 0 15 0 a7.5 7.5 0 1 0 -15 0zM1370.42 72.99 a7.5 7.5 0 1 0 15 0 a7.5 7.5 0 1 0 -15 0zM1305.47 110.49 a7.5 7.5 0 1 0 15 0 a7.5 7.5 0 1 0 -15 0zM1240.51 72.99 a7.5 7.5 0 1 0 15 0 a7.5 7.5 0 1 0 -15 0zM1240.51 -2.01 a7.5 7.5 0 1 0 15 0 a7.5 7.5 0 1 0 -15 0z" fill="#03305d"></path><path d="M22.16 -46.56L65.46 -21.56L65.46 28.44L22.16 53.44L-21.14 28.44L-21.14 -21.56zM22.16 103.44L65.46 128.44L65.46 178.44L22.16 203.44L-21.14 178.44L-21.14 128.44zM65.46 328.44L108.77 353.44L108.77 403.44L65.46 428.44L22.16 403.44L22.16 353.44zM22.16 403.44L65.46 428.44L65.46 478.44L22.16 503.44L-21.14 478.44L-21.14 428.44zM108.77 -46.56L152.07 -21.56L152.07 28.44L108.77 53.44L65.46 28.44L65.46 -21.56zM152.07 28.44L195.37 53.44L195.37 103.44L152.07 128.44L108.77 103.44L108.77 53.44zM195.37 -46.56L238.67 -21.56L238.67 28.44L195.37 53.44L152.07 28.44L152.07 -21.56zM238.67 28.44L281.98 53.44L281.98 103.44L238.67 128.44L195.37 103.44L195.37 53.44zM238.67 328.44L281.98 353.44L281.98 403.44L238.67 428.44L195.37 403.44L195.37 353.44zM238.67 478.44L281.98 503.44L281.98 553.44L238.67 578.44L195.37 553.44L195.37 503.44zM281.98 -46.56L325.28 -21.56L325.28 28.44L281.98 53.44L238.67 28.44L238.67 -21.56zM281.98 103.44L325.28 128.44L325.28 178.44L281.98 203.44L238.67 178.44L238.67 128.44zM325.28 328.44L368.58 353.44L368.58 403.44L325.28 428.44L281.98 403.44L281.98 353.44zM325.28 478.44L368.58 503.44L368.58 553.44L325.28 578.44L281.98 553.44L281.98 503.44zM368.58 103.44L411.88 128.44L411.88 178.44L368.58 203.44L325.28 178.44L325.28 128.44zM411.88 178.44L455.19 203.44L455.19 253.44L411.88 278.44L368.58 253.44L368.58 203.44zM368.58 403.44L411.88 428.44L411.88 478.44L368.58 503.44L325.28 478.44L325.28 428.44zM498.49 28.44L541.79 53.44L541.79 103.44L498.49 128.44L455.19 103.44L455.19 53.44zM455.19 103.44L498.49 128.44L498.49 178.44L455.19 203.44L411.88 178.44L411.88 128.44zM498.49 178.44L541.79 203.44L541.79 253.44L498.49 278.44L455.19 253.44L455.19 203.44zM455.19 253.44L498.49 278.44L498.49 328.44L455.19 353.44L411.88 328.44L411.88 278.44zM498.49 328.44L541.79 353.44L541.79 403.44L498.49 428.44L455.19 403.44L455.19 353.44zM498.49 478.44L541.79 503.44L541.79 553.44L498.49 578.44L455.19 553.44L455.19 503.44zM585.09 178.44L628.39 203.44L628.39 253.44L585.09 278.44L541.79 253.44L541.79 203.44zM541.79 403.44L585.09 428.44L585.09 478.44L541.79 503.44L498.49 478.44L498.49 428.44zM585.09 478.44L628.39 503.44L628.39 553.44L585.09 578.44L541.79 553.44L541.79 503.44zM628.39 103.44L671.7 128.44L671.7 178.44L628.39 203.44L585.09 178.44L585.09 128.44zM671.7 178.44L715 203.44L715 253.44L671.7 278.44L628.39 253.44L628.39 203.44zM671.7 328.44L715 353.44L715 403.44L671.7 428.44L628.39 403.44L628.39 353.44zM671.7 478.44L715 503.44L715 553.44L671.7 578.44L628.39 553.44L628.39 503.44zM715 253.44L758.3 278.44L758.3 328.44L715 353.44L671.7 328.44L671.7 278.44zM758.3 328.44L801.61 353.44L801.61 403.44L758.3 428.44L715 403.44L715 353.44zM715 403.44L758.3 428.44L758.3 478.44L715 503.44L671.7 478.44L671.7 428.44zM844.91 28.44L888.21 53.44L888.21 103.44L844.91 128.44L801.61 103.44L801.61 53.44zM844.91 178.44L888.21 203.44L888.21 253.44L844.91 278.44L801.61 253.44L801.61 203.44zM801.61 253.44L844.91 278.44L844.91 328.44L801.61 353.44L758.3 328.44L758.3 278.44zM801.61 403.44L844.91 428.44L844.91 478.44L801.61 503.44L758.3 478.44L758.3 428.44zM931.51 28.44L974.82 53.44L974.82 103.44L931.51 128.44L888.21 103.44L888.21 53.44zM931.51 478.44L974.82 503.44L974.82 553.44L931.51 578.44L888.21 553.44L888.21 503.44zM1018.12 28.44L1061.42 53.44L1061.42 103.44L1018.12 128.44L974.82 103.44L974.82 53.44zM974.82 103.44L1018.12 128.44L1018.12 178.44L974.82 203.44L931.51 178.44L931.51 128.44zM1018.12 178.44L1061.42 203.44L1061.42 253.44L1018.12 278.44L974.82 253.44L974.82 203.44zM1018.12 328.44L1061.42 353.44L1061.42 403.44L1018.12 428.44L974.82 403.44L974.82 353.44zM974.82 403.44L1018.12 428.44L1018.12 478.44L974.82 503.44L931.51 478.44L931.51 428.44zM1018.12 478.44L1061.42 503.44L1061.42 553.44L1018.12 578.44L974.82 553.44L974.82 503.44zM1104.72 178.44L1148.03 203.44L1148.03 253.44L1104.72 278.44L1061.42 253.44L1061.42 203.44zM1148.03 103.44L1191.33 128.44L1191.33 178.44L1148.03 203.44L1104.72 178.44L1104.72 128.44zM1191.33 178.44L1234.63 203.44L1234.63 253.44L1191.33 278.44L1148.03 253.44L1148.03 203.44zM1148.03 403.44L1191.33 428.44L1191.33 478.44L1148.03 503.44L1104.72 478.44L1104.72 428.44zM1191.33 478.44L1234.63 503.44L1234.63 553.44L1191.33 578.44L1148.03 553.44L1148.03 503.44zM1234.63 -46.56L1277.93 -21.56L1277.93 28.44L1234.63 53.44L1191.33 28.44L1191.33 -21.56zM1277.93 28.44L1321.24 53.44L1321.24 103.44L1277.93 128.44L1234.63 103.44L1234.63 53.44zM1277.93 178.44L1321.24 203.44L1321.24 253.44L1277.93 278.44L1234.63 253.44L1234.63 203.44zM1277.93 478.44L1321.24 503.44L1321.24 553.44L1277.93 578.44L1234.63 553.44L1234.63 503.44zM1321.24 -46.56L1364.54 -21.56L1364.54 28.44L1321.24 53.44L1277.93 28.44L1277.93 -21.56zM1364.54 28.44L1407.84 53.44L1407.84 103.44L1364.54 128.44L1321.24 103.44L1321.24 53.44zM1321.24 403.44L1364.54 428.44L1364.54 478.44L1321.24 503.44L1277.93 478.44L1277.93 428.44zM1451.14 178.44L1494.45 203.44L1494.45 253.44L1451.14 278.44L1407.84 253.44L1407.84 203.44zM1407.84 403.44L1451.14 428.44L1451.14 478.44L1407.84 503.44L1364.54 478.44L1364.54 428.44zM1451.14 478.44L1494.45 503.44L1494.45 553.44L1451.14 578.44L1407.84 553.44L1407.84 503.44z" stroke="rgba(6, 80, 156, 0.93)" stroke-width="2"></path></g><defs><mask id="SvgjsMask1022"><rect width="1440" height="560" fill="#ffffff"></rect></mask></defs></svg>